<svg id="Ebene_1" data-name="Ebene 1" xmlns="http://www.w3.org/2000/svg" width="456.66667" height="102.00001" viewBox="0 0 456.66667 102.00001">
  <defs>
    <style>
      .cls-1, .cls-2 {
        fill: #212121;
      }

      .cls-2 {
        font-size: 72px;
        font-family: Consolas;
        font-weight: 700;
      }

      .cls-3 {
        fill: #9c27b0;
        stroke: #000;
        stroke-miterlimit: 10;
        stroke-width: 4px;
      }
    </style>
  </defs>
  <title>logo</title>
  <path class="cls-1" d="M156.47948,10.44833a40.184,40.184,0,0,0-28.41632,11.53235L106.73208,40.89977,95.2751,51h0.07538L75.07464,69.0146a25.52087,25.52087,0,1,1-18.09-43.49129,25.624,25.624,0,0,1,18.39146,7.76361L83.8935,40.8244l11.3816-10.10023-9.49723-8.36661A40.5497,40.5497,0,1,0,85.401,80.01933l21.33108-18.84371,0.07538,0.07538L118.18906,51h-0.07538l20.27584-18.01459a25.52087,25.52087,0,1,1,18.09,43.49129A25.751,25.751,0,0,1,138.088,68.7131l-8.59274-7.61286-11.3816,10.10023,9.5726,8.442A40.62161,40.62161,0,1,0,156.47948,10.44833Z"/>
  <text class="cls-2" transform="translate(228.33333 69.81739)">orfap</text>
  <line class="cls-3" y1="100.00001" x2="456.66667" y2="100.00001"/>
  <line class="cls-3" y1="2" x2="456.66667" y2="2"/>
</svg>
